<?xml version="1.0" encoding="UTF-8" standalone="no"?>
<svg
   xmlns:svg="http://www.w3.org/2000/svg"
   xmlns="http://www.w3.org/2000/svg"
   width="900.0"
   height="900.0"

>
    <g transform="scale(11.20399697452239, -11.20399697452239)   translate(25.75998300776958,-29.06879610729996)" stroke-width="0.18"  fill="none">
       <!-- hidden lines -->
       <g  stroke="rgb(200,200,200)" fill="none" stroke-dasharray="0.18,0.18" >

       </g>

       <!-- solid lines -->
       <g  stroke="rgb(20,20,20)" fill="none">
			<path d="M-22.585705620162845,-25.004253856927427 L22.585705620162845,-4.708593258772048 " />
			<path d="M22.585705620162845,-4.708593258772046 L22.585705620162845,25.004253856927427 " />
			<path d="M22.585705620162845,25.004253856927427 L-22.585705620162845,4.708593258772048 " />
			<path d="M-22.585705620162845,4.708593258772046 L-22.585705620162845,-25.004253856927427 " />
			<path d="M-23.814859667518647,-28.453687764303712 L-23.667617255595815,-28.548953109968522 " />
			<path d="M23.814859667518647,-7.053501419309942 L23.96210207944148,-7.148766764974753 " />
			<path d="M-23.814859667518647,-28.453687764303712 L23.814859667518647,-7.053501419309942 " />
			<path d="M-23.667617255595815,-28.548953109968522 L23.96210207944148,-7.148766764974752 " />
			<path d="M-23.814859667518647,5.588071884692109 L-23.814859667518647,-28.453687764303712 " />
			<path d="M23.814859667518647,26.98825822968588 L23.96210207944148,26.89299288402107 " />
			<path d="M23.814859667518647,-7.053501419309942 L23.814859667518647,26.98825822968588 " />
			<path d="M23.96210207944148,-7.148766764974753 L23.96210207944148,26.89299288402107 " />
			<path d="M23.814859667518647,26.98825822968588 L-23.814859667518647,5.588071884692109 " />
			<path d="M-23.97490576743477,-29.10811926930545 L-23.59079512763608,-29.356637562344087 " />
			<path d="M24.269390591280427,-7.4318014876020895 L24.653501231079115,-7.680319780640727 " />
			<path d="M-23.97490576743477,-29.10811926930545 L24.26939059128042,-7.431801487602087 " />
			<path d="M-23.59079512763608,-29.35663756234409 L-3.1701931471385016,-20.18159530384125 " />
			<path d="M4.168880810615093,-16.88412573046748 L24.653501231079108,-7.680319780640726 " />
			<path d="M24.269390591280427,27.28371886696515 L24.653501231079115,27.035200573926513 " />
			<path d="M24.269390591280427,-7.4318014876020895 L24.269390591280427,27.28371886696515 " />
			<path d="M24.653501231079115,-7.680319780640727 L24.653501231079115,27.035200573926513 " />
			<path d="M24.269390591280427,27.28371886696515 L-23.974905767434763,5.607401085261785 " />
			<path d="M-23.97490576743477,5.607401085261782 L-23.97490576743477,-29.10811926930546 " />
			<path d="M-23.59079512763608,-30.704158973486926 L-23.142666047870946,-30.994096982032 " />
			<path d="M24.653501231079115,-9.027841191783558 L25.10163031084425,-9.317779200328635 " />
			<path d="M-23.59079512763608,-30.704158973486926 L-3.1701931471385016,-21.529116714984085 " />
			<path d="M4.168880810615093,-18.231647141610317 L24.653501231079108,-9.027841191783562 " />
			<path d="M-23.142666047870943,-30.994096982032 L-3.1701931471385016,-22.020400562796574 " />
			<path d="M4.168880810615093,-18.722930989422807 L25.101630310844246,-9.317779200328637 " />
			<path d="M24.653501231079115,27.03520057392651 L25.10163031084425,26.745262565381434 " />
			<path d="M24.653501231079115,-9.027841191783558 L24.653501231079115,27.03520057392651 " />
			<path d="M25.101630310844254,-9.317779200328635 L25.101630310844254,26.74526256538143 " />
			<path d="M-23.59079512763608,-29.356637562344087 L-23.59079512763608,-30.704158973486923 " />
			<path d="M4.104862370648645,-16.842706014961042 L4.168880810615093,-16.88412573046748 " />
			<path d="M4.104862370648646,-21.28110466291275 L4.168880810615094,-21.32252437841919 " />
			<path d="M4.104862370648645,-16.842706014961042 L4.104862370648645,-21.281104662912753 " />
			<path d="M4.168880810615093,-16.88412573046748 L4.168880810615093,-21.32252437841919 " />
			<path d="M-3.1701931471385034,-20.1114118970109 L4.104862370648645,-16.842706014961045 " />
			<path d="M3.7860505396157347,-22.089686542457628 L3.8500689795821827,-22.131106257964067 " />
			<path d="M4.104862370648646,-21.28110466291275 L3.7860505396157347,-22.089686542457628 " />
			<path d="M4.168880810615093,-21.32252437841919 L3.850068979582182,-22.131106257964067 " />
			<path d="M3.7860505396157347,-22.089686542457628 L3.786050539615735,-29.93899876236463 " />
			<path d="M3.7860505396157347,-29.93899876236463 L-2.8513813161055923,-32.92121827882828 " />
			<path d="M-2.8513813161055923,-32.92121827882828 L-2.8513813161055928,-25.071906058921275 " />
			<path d="M-2.8513813161055923,-25.07190605892128 L-3.1701931471385034,-24.549810544962607 " />
			<path d="M-3.170193147138503,-24.549810544962607 L-3.170193147138503,-20.111411897010896 " />
			<path d="M-1.3315835513021161,-32.30855165362886 L-2.7873628761391442,-32.96263799433472 " />
			<path d="M-0.9474729115034286,-32.13596950568536 L-1.0627061034430358,-32.18774415006841 " />
			<path d="M-0.5633622717047411,-31.963387357741862 L-0.6785954636443474,-32.01516200212491 " />
			<path d="M-0.17925163190605264,-31.790805209798364 L-0.2944848238456599,-31.842579854181416 " />
			<path d="M0.2048590078926349,-31.618223061854867 L0.0896258159530281,-31.669997706237915 " />
			<path d="M0.5889696476913224,-31.44564091391137 L0.4737364557517161,-31.497415558294417 " />
			<path d="M0.9730802874900104,-31.27305876596787 L0.8578470955504036,-31.32483341035092 " />
			<path d="M1.3571909272886984,-31.100476618024373 L1.2419577353490916,-31.15225126240742 " />
			<path d="M1.7413015670873864,-30.927894470080872 L1.6260683751477796,-30.979669114463924 " />
			<path d="M2.1254122068860744,-30.755312322137375 L2.010179014946467,-30.807086966520426 " />
			<path d="M3.8500689795821827,-29.98041847787107 L2.3942896547451555,-30.63450481857693 " />
			<path d="M3.8500689795821827,-22.131106257964067 L3.850068979582183,-29.98041847787107 " />
			<path d="M3.7860505396157347,-29.93899876236463 L3.8500689795821827,-29.98041847787107 " />
			<path d="M-2.8513813161055923,-32.92121827882828 L-2.7873628761391442,-32.96263799433472 " />
			<path d="M-1.350789083292051,-32.296125738976926 L-1.3315835513021166,-32.30855165362886 " />
			<path d="M-1.350789083292051,-32.296125738976926 L-1.0819116354329696,-32.175318235416476 " />
			<path d="M-1.0819116354329699,-32.175318235416476 L-1.0627061034430354,-32.18774415006841 " />
			<path d="M-0.9666784434933633,-32.12354359103343 L-0.9474729115034289,-32.13596950568537 " />
			<path d="M-0.9666784434933633,-32.12354359103343 L-0.6978009956342819,-32.00273608747298 " />
			<path d="M-0.6978009956342817,-32.00273608747298 L-0.6785954636443473,-32.01516200212492 " />
			<path d="M-0.5825678036946755,-31.950961443089934 L-0.5633622717047412,-31.963387357741865 " />
			<path d="M-0.5825678036946755,-31.950961443089934 L-0.31369035583559407,-31.830153939529485 " />
			<path d="M-0.313690355835594,-31.830153939529485 L-0.2944848238456596,-31.842579854181416 " />
			<path d="M-0.19845716389598766,-31.778379295146436 L-0.17925163190605325,-31.790805209798368 " />
			<path d="M-0.19845716389598766,-31.778379295146436 L0.0704202839630938,-31.657571791585987 " />
			<path d="M0.07042028396309391,-31.657571791585987 L0.0896258159530283,-31.66999770623792 " />
			<path d="M0.1856534759027002,-31.605797147202935 L0.20485900789263461,-31.618223061854867 " />
			<path d="M0.1856534759027002,-31.605797147202935 L0.45453092376178167,-31.484989643642486 " />
			<path d="M0.4545309237617817,-31.48498964364249 L0.47373645575171613,-31.49741555829442 " />
			<path d="M0.5697641157013881,-31.433214999259437 L0.5889696476913224,-31.44564091391137 " />
			<path d="M0.5697641157013881,-31.433214999259437 L0.8386415635604696,-31.312407495698988 " />
			<path d="M0.8386415635604696,-31.31240749569899 L0.857847095550404,-31.324833410350923 " />
			<path d="M0.9538747555000759,-31.26063285131594 L0.9730802874900103,-31.27305876596787 " />
			<path d="M0.9538747555000759,-31.26063285131594 L1.2227522033591574,-31.13982534775549 " />
			<path d="M1.2227522033591574,-31.13982534775549 L1.2419577353490918,-31.15225126240742 " />
			<path d="M1.3379853952987637,-31.088050703372442 L1.3571909272886982,-31.100476618024373 " />
			<path d="M1.3379853952987637,-31.088050703372442 L1.606862843157845,-30.967243199811993 " />
			<path d="M1.6068628431578456,-30.967243199811993 L1.62606837514778,-30.979669114463924 " />
			<path d="M1.7220960350974517,-30.915468555428944 L1.7413015670873861,-30.927894470080876 " />
			<path d="M1.7220960350974517,-30.915468555428944 L1.990973482956533,-30.794661051868495 " />
			<path d="M1.9909734829565333,-30.794661051868495 L2.0101790149464676,-30.807086966520426 " />
			<path d="M2.10620667489614,-30.742886407485447 L2.1254122068860744,-30.755312322137378 " />
			<path d="M2.10620667489614,-30.742886407485447 L2.3750841227552217,-30.622078903924997 " />
			<path d="M2.3750841227552213,-30.622078903924997 L2.3942896547451555,-30.63450481857693 " />
			<path d="M-1.773310787070608,-32.29647090327281 L-1.645273907137712,-32.37931033428569 " />
			<path d="M2.4519062507149583,-30.398067275894334 L2.5799431306478544,-30.480906706907213 " />
			<path d="M-1.773310787070608,-32.29647090327281 L2.4519062507149583,-30.398067275894334 " />
			<path d="M-1.645273907137712,-32.37931033428569 L2.5799431306478544,-30.480906706907213 " />
			<path d="M2.4519062507149583,-27.029263748037252 L2.5799431306478544,-27.11210317905013 " />
			<path d="M2.4519062507149583,-30.398067275894334 L2.4519062507149583,-27.029263748037252 " />
			<path d="M2.5799431306478544,-30.480906706907216 L2.5799431306478544,-27.112103179050134 " />
			<path d="M2.4519062507149583,-27.029263748037252 L-1.7733107870706082,-28.92766737541573 " />
			<path d="M-1.773310787070608,-28.92766737541573 L-1.773310787070608,-32.29647090327281 " />
			<path d="M2.1254122068860744,-30.755312322137378 L2.394289654745156,-30.63450481857693 " />
			<path d="M1.7413015670873861,-30.927894470080876 L2.0101790149464676,-30.807086966520426 " />
			<path d="M1.3571909272886984,-31.100476618024373 L1.6260683751477798,-30.979669114463924 " />
			<path d="M0.9730802874900104,-31.27305876596787 L1.2419577353490918,-31.15225126240742 " />
			<path d="M0.5889696476913225,-31.44564091391137 L0.8578470955504041,-31.32483341035092 " />
			<path d="M0.20485900789263467,-31.618223061854867 L0.47373645575171613,-31.497415558294417 " />
			<path d="M-0.1792516319060532,-31.790805209798368 L0.08962581595302826,-31.66999770623792 " />
			<path d="M-0.5633622717047411,-31.963387357741865 L-0.2944848238456596,-31.842579854181416 " />
			<path d="M-0.9474729115034288,-32.13596950568536 L-0.6785954636443474,-32.01516200212491 " />
			<path d="M-1.3315835513021166,-32.30855165362886 L-1.0627061034430352,-32.18774415006841 " />

       </g>
    </g>
    
</svg>
